<?xml version="1.0" standalone="no"?>
<!DOCTYPE svg PUBLIC "-//W3C//DTD SVG 20010904//EN"
 "http://www.w3.org/TR/2001/REC-SVG-20010904/DTD/svg10.dtd">
<svg version="1.0" xmlns="http://www.w3.org/2000/svg"
 width="64.000000pt" height="64.000000pt" viewBox="0 0 64.000000 64.000000"
 preserveAspectRatio="xMidYMid meet">

<g transform="translate(0.000000,64.000000) scale(0.100000,-0.100000)"
fill="#000000" stroke="none">
<path d="M84 521 c-28 -12 -61 -55 -69 -91 -9 -43 19 -97 60 -111 30 -11 33
-16 29 -43 -8 -50 32 -117 86 -144 36 -18 61 -22 130 -22 69 0 94 4 130 22 54
27 94 94 86 144 -4 27 -1 32 29 43 46 16 71 70 56 121 -26 87 -111 113 -173
53 -32 -31 -35 -31 -80 -22 -33 7 -63 7 -95 0 -46 -9 -49 -8 -78 19 -33 32
-78 45 -111 31z m93 -33 c29 -28 29 -42 -2 -62 -14 -9 -34 -34 -45 -56 -24
-47 -49 -52 -79 -14 -67 85 48 205 126 132z m404 -7 c36 -36 39 -86 8 -125
-30 -38 -55 -33 -79 14 -11 22 -31 47 -45 56 -31 20 -31 31 -3 61 31 34 82 31
119 -6z m-178 -35 c39 -17 92 -71 106 -109 28 -73 0 -161 -59 -192 -41 -21
-220 -21 -261 0 -86 45 -93 179 -13 259 16 16 43 35 59 42 40 17 127 18 168 0z"/>
<path d="M285 296 c-16 -39 -12 -62 15 -76 45 -24 78 21 56 75 -20 47 -52 48
-71 1z m55 -6 c16 -38 7 -62 -22 -58 -27 4 -35 32 -17 64 16 31 24 30 39 -6z"/>
<path d="M200 270 c0 -13 20 -13 40 0 12 8 9 10 -12 10 -16 0 -28 -4 -28 -10z"/>
<path d="M390 270 c20 -13 40 -13 40 0 0 6 -12 10 -27 10 -22 0 -25 -2 -13
-10z"/>
<path d="M280 198 c0 -13 48 -20 66 -10 14 8 9 10 -24 14 -23 2 -42 0 -42 -4z"/>
</g>
</svg>
